HIERARCHY
ROOT pelvis
{
  OFFSET 0 100 0
  CHANNELS 6 Xposition Yposition Zposition Zrotation Xrotation Yrotation
  JOINT pelvis_right_femur
  {
    OFFSET -10.78128 -3.44521 -0.5502486
    CHANNELS 3 Zrotation Xrotation Yrotation
    JOINT right_femur_tibia
    {
      OFFSET -0.8047443 -44.0398 -0.1307829
      CHANNELS 3 Zrotation Xrotation Yrotation
      JOINT right_tibia_foot
      {
        OFFSET 3.006224 -47.83518 -5
        CHANNELS 3 Zrotation Xrotation Yrotation
        End Site
        {
          OFFSET 0 -5 15
        }
      }
    }
  }
  JOINT pelvis_left_femur
  {
    OFFSET 10.78128 -3.44521 -0.5502486
    CHANNELS 3 Zrotation Xrotation Yrotation
    JOINT left_femur_tibia
    {
      OFFSET 0.8047443 -44.0398 -0.1307829
      CHANNELS 3 Zrotation Xrotation Yrotation
      JOINT left_tibia_foot
      {
        OFFSET -4.370144 -48.10324 -4.275266
        CHANNELS 3 Zrotation Xrotation Yrotation
        End Site
        {
          OFFSET 0 -5 15
        }
      }
    }
  }
  JOINT pelvis_spine1
  {
    OFFSET 0 6.468898 -3.129235
    CHANNELS 3 Zrotation Xrotation Yrotation
    JOINT spine1
    {
      OFFSET 0 23.15396 4.99043
      CHANNELS 3 Zrotation Xrotation Yrotation
      JOINT spine2
      {
        OFFSET 0 20.79997 -5.064912
        CHANNELS 3 Zrotation Xrotation Yrotation
        JOINT neck
        {
          OFFSET 0 14.38658 9.616178
          CHANNELS 3 Zrotation Xrotation Yrotation
          End Site
          {
            OFFSET 0 20 0
          }
        }
      }
      JOINT right_manubrium
      {
        OFFSET -5.722621 16.35077 3.967754
        CHANNELS 3 Zrotation Xrotation Yrotation
        JOINT right_clavicle
        {
          OFFSET -13.16364 1.694482 -4.693211
          CHANNELS 3 Zrotation Xrotation Yrotation
          JOINT right_humerus
          {
            OFFSET -28.5034 -0.3100689 -2.792744
            CHANNELS 3 Zrotation Xrotation Yrotation
            JOINT right_radius
            {
              OFFSET -25.15693 0.02248979 -1.271978
              CHANNELS 3 Zrotation Xrotation Yrotation
              End Site
              {
                OFFSET -15 0 0
              }
            }
          }
        }
      }
      JOINT left_manubrium
      {
        OFFSET 5.722621 16.35077 3.967754
        CHANNELS 3 Zrotation Xrotation Yrotation
        JOINT left_clavicle
        {
          OFFSET 13.16364 1.694482 -4.693211
          CHANNELS 3 Zrotation Xrotation Yrotation
          JOINT left_humerus
          {
            OFFSET 29.39168 -1.063119 -2.237045
            CHANNELS 3 Zrotation Xrotation Yrotation
            JOINT left_radius
            {
              OFFSET 24.59957 -0.9528479 0.9047498
              CHANNELS 3 Zrotation Xrotation Yrotation
              End Site
              {
                OFFSET 15 -0 -0
              }
            }
          }
        }
      }
    }
  }
}
MOTION
Frames: 13
Frame Time: 0.0416666666667
0 103.5113 0 1.127897 -0.9232765 0.1352854 2.868695 -17.2552 7.45122 -0 36.2714 -0 -5.944525 -16.4957 -3.093177 -7.164591 12.16575 -23.44807 -0 4.470153 -0 6.369019 -18.48138 25.44408 -2.630708 -4.320698 6.266538 1.698044 10.62265 -7.628591 1.805132 21.50084 5.958674 2.437216 -25.43095 9.62634 5.018455 -22.53676 11.02033 83.86063 32.57802 -15.81262 -0 0 19.68393 -9.36772 7.081988 3.389436 8.499901 -21.45914 1.454105 -94.37278 20.9612 23.37011 0 0 -9.253041 16.12904 19.3459 -5.454764
0.1797012 103.3779 1.600436 0.4395342 -0.2738094 0.2463299 3.597831 -20.03049 7.506643 -0 36.11898 -0 -6.467389 -15.91594 -3.316722 -6.575091 12.3483 -23.36902 -0 5.006921 -0 3.904023 -20.37587 24.07125 -2.570571 -3.978865 6.086159 1.91284 10.55075 -7.584032 1.762271 21.43466 6.13327 2.55255 -25.6074 9.682335 5.144298 -21.86645 11.10501 84.11931 33.2347 -16.23481 -0 0 18.61782 -8.964039 7.323126 3.503996 8.12135 -21.42106 1.180772 -94.06488 21.09245 22.92499 0 0 -10.46009 15.6756 18.50991 -4.775167
0.3760781 103.1424 3.460748 -0.06823319 0.5900347 0.3605385 4.533891 -23.75565 7.334713 -0 32.91542 -0 -6.461749 -14.09882 -3.204224 -6.228903 12.49079 -22.39367 -0 5.474184 -0 3.783933 -21.53743 23.29792 -2.5163 -3.656046 5.968188 2.052151 10.52248 -7.522101 1.697608 21.3896 6.26142 2.644623 -25.63097 9.644435 5.220285 -21.34694 11.20627 84.31148 33.82741 -16.43047 -0 0 17.74535 -8.881498 7.600378 3.799531 7.755678 -21.4085 0.8984982 -93.71133 21.1302 22.56827 0 0 -11.53361 15.19052 17.72423 -4.102125
0.5988517 102.7329 5.716496 -0.4741854 1.444811 0.4919336 5.41501 -27.52378 6.952616 -0 28.491 -0 -6.297597 -11.65129 -2.959142 -5.960313 12.7451 -21.02513 -0 5.96813 -0 4.13652 -22.49464 22.48331 -2.464464 -3.366018 5.874315 2.152267 10.50906 -7.467548 1.627545 21.34955 6.368426 2.727261 -25.596 9.575348 5.277737 -20.91739 11.30302 84.48348 34.33014 -16.57155 -0 0 17.01306 -8.929816 7.878189 4.13288 7.435642 -21.40502 0.6292364 -93.37574 21.16338 22.26171 0 0 -12.48276 14.70419 17.01116 -3.450829
0.8447124 102.1319 8.499526 -0.7866248 2.341034 0.674805 6.21012 -31.10884 6.398428 -0 23.38287 -0 -6.113611 -8.791174 -2.58577 -5.785244 13.17648 -19.41622 -0 6.687172 -0 4.778411 -23.19019 21.60547 -2.414331 -3.099646 5.789976 2.232307 10.50136 -7.42358 1.556221 21.31144 6.464307 2.803939 -25.54285 9.495917 5.316833 -20.54725 11.39401 84.65317 34.7534 -16.69641 -0 0 16.3718 -9.049345 8.143753 4.470852 7.15463 -21.40451 0.3764476 -93.05339 21.18696 21.97181 0 0 -13.3332 14.24668 16.34733 -2.854043
1.100556 101.3744 11.94458 -1.075486 3.225497 0.9608556 6.926619 -34.18536 5.700963 -0 18.35011 -0 -6.110915 -5.647853 -2.118181 -5.633793 13.82934 -17.67973 -0 8.026567 -0 5.186425 -23.53301 20.41418 -2.364695 -2.85407 5.707291 2.3017 10.49392 -7.392475 1.485933 21.27187 6.554415 2.877228 -25.48848 9.416442 5.343812 -20.21795 11.47762 84.82847 35.10709 -16.83137 -0 0 15.79691 -9.201655 8.39446 4.794381 6.91027 -21.40464 0.1401844 -92.74686 21.21103 21.68707 0 0 -14.1072 13.82003 15.72605 -2.30815
1.347783 100.557 16.15015 -1.425664 3.980084 1.400662 7.59344 -36.22163 4.995729 -0 14.41155 -0 -6.425933 -2.593576 -1.637642 -5.403527 14.64176 -16.00944 -0 10.41082 -0 4.711386 -23.29161 18.64256 -2.315394 -2.626266 5.62387 2.36448 10.48533 -7.373496 1.417371 21.23014 6.640757 2.947845 -25.43837 9.340055 5.36051 -19.92037 11.55427 85.01097 35.40121 -16.98108 -0 0 15.27344 -9.373042 8.630253 5.100139 6.69795 -21.40543 -0.08084991 -92.4528 21.23468 21.4013 0 0 -14.82013 13.42488 15.14054 -1.811119
1.571515 99.82671 21.13481 -1.901611 4.432277 2.006304 8.238897 -36.60125 4.459472 -0 12.41193 -0 -7.04234 -0.2191486 -1.266299 -4.985726 15.37769 -14.60572 -0 14.22537 -0 2.812457 -22.09522 16.14169 -2.266531 -2.41438 5.539474 2.421933 10.47558 -7.365189 1.350724 21.18626 6.723954 3.016148 -25.39217 9.266955 5.368904 -19.64894 11.6245 85.19964 35.64431 -17.14504 -0 0 14.79274 -9.558322 8.852866 5.389274 6.513592 -21.40739 -0.2886075 -92.16918 21.25843 21.11345 0 0 -15.48287 13.05656 14.58677 -1.355034
1.771976 99.35187 26.79228 -2.483788 4.393971 2.698344 8.821134 -34.85145 4.208734 -0 12.55677 -0 -7.757767 0.7934547 -1.150352 -4.334122 15.56887 -13.57818 -0 19.7669 -0 -0.506532 -19.55151 13.13982 -2.218546 -2.217071 5.455186 2.473899 10.46552 -7.365571 1.285983 21.14094 6.803823 3.082125 -25.34719 9.196039 5.370077 -19.40066 11.68897 85.39203 35.8433 -17.31884 -0 0 14.34981 -9.757679 9.064028 5.665237 6.35338 -21.41116 -0.484883 -91.89417 21.28155 20.82451 0 0 -16.10198 12.71008 14.06167 -0.9325206
1.968615 99.28892 32.89132 -3.022101 3.768954 3.283899 9.195642 -31.01805 4.190286 -0 14.0704 -0 -8.318289 0.07115216 -1.354552 -3.560159 14.58928 -12.81244 -0 27.26094 -0 -4.323853 -15.61031 10.34848 -2.171996 -2.033408 5.372547 2.519616 10.45628 -7.372586 1.223118 21.0952 6.87985 3.145662 -25.3 9.125822 5.36493 -19.17364 11.74824 85.58524 36.00362 -17.4973 -0 0 13.94176 -9.97308 9.265319 5.93171 6.213945 -21.41713 -0.6712527 -91.62694 21.30374 20.53677 0 0 -16.68098 12.38011 13.56308 -0.5361627
2.187476 99.74916 39.14582 -3.271882 2.657826 3.532052 9.18031 -25.7946 4.193978 -0 15.51887 -0 -8.652872 -2.066241 -1.739933 -2.934075 11.91461 -11.99955 -0 36.71155 -0 -7.165991 -10.96007 8.558225 -2.127484 -1.862659 5.293198 2.558175 10.449 -7.38425 1.162143 21.05017 6.951414 3.206579 -25.24739 9.0549 5.354131 -18.9666 11.8028 85.77642 36.12952 -17.67522 -0 0 13.56681 -10.2069 9.457906 6.191943 6.0923 -21.42544 -0.8489658 -91.36727 21.32472 20.25289 0 0 -17.22133 12.06194 13.08929 -0.159638
2.437582 100.7503 45.3118 -3.019463 1.339097 3.329168 8.657045 -20.08421 4.017643 -0 15.73099 -0 -8.867303 -4.720709 -2.0308 -2.688528 7.414246 -10.92444 -0 47.25991 -0 -8.091466 -6.8625 8.070312 -2.085549 -1.704171 5.218567 2.588838 10.44463 -7.398811 1.103123 21.00689 7.01796 3.264703 -25.18687 8.982211 5.338259 -18.77839 11.85301 85.96305 36.22435 -17.84828 -0 0 13.22363 -10.46087 9.642572 6.448317 5.985839 -21.4359 -1.018972 -91.11541 21.34445 19.97545 0 0 -17.72333 11.75171 12.63885 0.2022122
2.69718 102.1491 51.24439 -2.218414 0.0816746 2.769743 7.648003 -14.3886 3.640947 -0 14.46315 -0 -8.959223 -6.990832 -2.040365 -2.784262 1.46881 -9.665688 -0 56.62928 -0 -7.395739 -4.370508 8.686278 -2.0466 -1.557281 5.149675 2.611229 10.44381 -7.414855 1.046175 20.96624 7.079112 3.319903 -25.11696 8.907163 5.31783 -18.60784 11.89917 86.14325 36.29079 -18.01335 -0 0 12.9109 -10.73552 9.819759 6.702216 5.892332 -21.44811 -1.181954 -90.87183 21.36304 19.70646 0 0 -18.187 11.44662 12.21037 0.5531792
